<?xml version="1.0" standalone="no"?>
<!DOCTYPE svg PUBLIC "-//W3C//DTD SVG 20010904//EN"
 "http://www.w3.org/TR/2001/REC-SVG-20010904/DTD/svg10.dtd">
<svg version="1.0" xmlns="http://www.w3.org/2000/svg"
 width="1280.000000pt" height="1280.000000pt" viewBox="0 0 1280.000000 1280.000000"
 preserveAspectRatio="xMidYMid meet">
<metadata>
Created by potrace 1.15, written by Peter Selinger 2001-2017
</metadata>
<g transform="translate(0.000000,1280.000000) scale(0.100000,-0.100000)"
fill="#000000" stroke="none">
<path d="M6110 12783 c-891 -48 -1692 -255 -2523 -651 -491 -235 -934 -517
-1342 -856 -169 -140 -558 -533 -706 -711 -780 -943 -1304 -2146 -1458 -3350
-39 -301 -46 -425 -46 -810 0 -467 21 -719 96 -1132 176 -979 625 -1998 1235
-2804 735 -970 1786 -1704 3034 -2119 458 -152 886 -243 1405 -297 213 -22
886 -25 1090 -5 881 86 1586 288 2360 674 996 498 1775 1181 2360 2068 578
877 952 1894 1064 2895 130 1154 -50 2291 -534 3370 -511 1140 -1238 2011
-2210 2648 -597 390 -1362 726 -2042 896 -586 146 -1239 214 -1783 184z m600
-1063 c553 -39 1104 -166 1622 -375 1172 -474 2012 -1195 2601 -2230 607
-1069 839 -2211 691 -3395 -144 -1152 -741 -2361 -1549 -3139 -404 -388 -816
-674 -1350 -936 -653 -321 -1284 -494 -1984 -546 -209 -15 -725 -7 -910 15
-618 73 -1148 223 -1698 480 -808 377 -1458 898 -1963 1571 -563 751 -938
1680 -1050 2599 -121 997 40 1982 476 2917 553 1185 1398 2025 2574 2557 640
289 1227 438 1920 485 112 8 489 6 620 -3z"/>
<path d="M6140 10264 c-505 -46 -911 -161 -1325 -378 -1017 -531 -1750 -1556
-1969 -2756 -50 -275 -61 -411 -61 -760 0 -251 5 -358 18 -470 117 -945 502
-1756 1137 -2390 551 -552 1206 -887 1955 -1000 181 -28 568 -38 752 -21 759
73 1426 371 2019 902 266 237 533 569 728 902 109 186 245 476 307 654 l17 52
-56 19 c-31 11 -282 99 -557 195 -275 96 -508 177 -518 179 -14 2 -27 -21 -66
-117 -140 -346 -328 -633 -585 -891 -580 -579 -1345 -807 -2087 -619 -686 174
-1279 693 -1594 1395 -176 390 -255 769 -255 1215 0 488 97 904 311 1325 204
403 506 747 864 983 640 421 1426 478 2110 153 238 -113 440 -259 646 -465
149 -150 286 -321 374 -469 l49 -81 31 18 c16 10 246 144 510 296 264 153 488
283 497 290 15 10 9 24 -61 136 -541 871 -1384 1467 -2333 1648 -196 38 -349
52 -583 56 -126 1 -250 1 -275 -1z"/>
</g>
</svg>
